<svg xmlns="http://www.w3.org/2000/svg" xmlns:xlink="http://www.w3.org/1999/xlink" viewBox="0 0 68.28 92.06"><defs><style>.cls-1{fill:none;}.cls-2{clip-path:url(#clip-path);}.cls-3{fill:#3a3c44;}.cls-4{fill:#cbdb2a;}</style><clipPath id="clip-path" transform="translate(0 0)"><rect class="cls-1" width="68.28" height="92.06"/></clipPath></defs><title>Asset 2</title><g id="Layer_2" data-name="Layer 2"><g id="Layer_1-2" data-name="Layer 1"><g class="cls-2"><path class="cls-3" d="M7,31.78v5.28a4.56,4.56,0,0,0,3.83,4.4l12,2.22a2.48,2.48,0,0,1,.75.26,1.78,1.78,0,0,1,1,1.54l-.05,14.57c0,7.54-.14,21.3-.25,24.14a.21.21,0,0,1-.32.17c-.65-.37-1.81-1.11-2.81-1.77h0c-4.91-3.27-12.35-8.2-15.18-14.41A53.81,53.81,0,0,1,1,45.64V21.55a10.53,10.53,0,0,1,2.92-7.12A50.11,50.11,0,0,1,14.35,5.75,37.25,37.25,0,0,1,30.31,1a.91.91,0,0,1,.64.17.59.59,0,0,1,.15.44c0,4,0,21.27,0,21.27,0,3.46,0,6.45,0,8.52a.15.15,0,0,1-.15.14h-.34c-1.45,0-12.41-.49-12.52-.5l-9.91-.42a1.29,1.29,0,0,0-.88.34,1.15,1.15,0,0,0-.36.83m25.14-8.87c0-7.69,0-21.06,0-21.3A1.48,1.48,0,0,0,31.66.5a2,2,0,0,0-1.4-.45A35,35,0,0,0,13.81,5,50.6,50.6,0,0,0,3.17,13.81,11.44,11.44,0,0,0,0,21.55V45.64a54.76,54.76,0,0,0,5,22.9C7.93,75,15.5,80,20.52,83.35a25.05,25.05,0,0,0,4.17,2.29c.3.1.41,0,.43-.31.77-11,1.67-36.89,1.74-38.85,0-1.1.13-2.41-.78-3.23a6.58,6.58,0,0,0-3.3-1.15L12.62,40.42a5.47,5.47,0,0,1-1.75-.53c-1-.54-.79-3.1-.79-4.32V31.81a.24.24,0,0,1,.07-.16.27.27,0,0,1,.17-.06l20.65,1c.85,0,1.13-.64,1.13-1.35,0-2.76,0-5.53,0-8.29" transform="translate(0 0)"/><path class="cls-3" d="M60,48.72c.3-.32.61-.62.91-.94C68.43,40,70.57,29,65.58,19.36,60.66,9.89,48.82,2,37.84.08,34.78-.45,34.9,1.75,34.9,4V31.41c0,.46,0,1,.69,1.09a1.36,1.36,0,0,0,.84-.12c3.25-1.52,7.89-3.61,12.75-3.42,3.79.15,8,2.36,8,6A7.12,7.12,0,0,1,54.77,40a25.85,25.85,0,0,1-4.9,3.38C45.41,46,41,49,38.28,53.31s-3.12,10.19.24,14c2.66,3,7.43,4.7,8.2,8.56.61,3.07-2.19,6.22-5.47,6.5A7.37,7.37,0,0,1,34,77.66a.09.09,0,0,0-.16,0A8.32,8.32,0,0,0,38,85.6a9.35,9.35,0,0,0,9.65-.42c1.54,5.1,8.16,8.22,13.4,6.32,2.39-.88,4.49-2.8,4.88-5.2A4.69,4.69,0,0,0,62.1,81a.12.12,0,0,0-.14.13,4.09,4.09,0,0,1-1.54,3.55,2.73,2.73,0,0,1-2.33.44c-1.86-.53-2.11-2.86-1.29-4.43S59,78.14,60,76.79a8.57,8.57,0,0,0-2.64-12.07,15.16,15.16,0,0,0,9.14-3.49c.08-.07,0-.19-.1-.17a8.87,8.87,0,0,1-6.93-1,6.22,6.22,0,0,1-2.86-6.3c.42-2,1.91-3.55,3.41-5.06" transform="translate(0 0)"/><path class="cls-4" d="M39.08,55.2c-1.35,2.73-1.88,6.32-.47,9,2.13,4.07,7.8,5.7,9.73,9.86,1,2.17-.3,6.19-1.64,6.75,3.09-1.28,4.35-5.62,3.1-8.6-1.34-3.18-4.13-4.87-6.3-7.42a10.27,10.27,0,0,1-2.37-8.36c.44-2.41,1.68-4.36,3.18-6.62a21.11,21.11,0,0,1,2.77-3.13s-5.75,3.93-8,8.49" transform="translate(0 0)"/><path class="cls-4" d="M61.74,89.64a10.23,10.23,0,0,1-7.91,0A7.76,7.76,0,0,1,49.09,84l2.8-2.28a8.05,8.05,0,0,0,1.88,5,10.33,10.33,0,0,0,8,2.92" transform="translate(0 0)"/><path class="cls-4" d="M51.66,51.75c-1.49,1.82-2.26,3.3-1.81,5.27a8,8,0,0,0,3.62,4.77c2.84,1.81,5.44,1.56,8.07.79a11.69,11.69,0,0,1-5.18-.84,9.79,9.79,0,0,1-4.55-4,5.76,5.76,0,0,1-.15-6" transform="translate(0 0)"/><path class="cls-4" d="M50.79,44.69C55.71,42.58,62.66,39,60.65,33a7.34,7.34,0,0,0-3.49-4,10.43,10.43,0,0,0-5.82-1c4.11.38,7.77,3.39,7.69,7.47-.09,4.48-4.66,7.16-8.24,9.26" transform="translate(0 0)"/><path class="cls-4" d="M31,31.53a.14.14,0,0,0,.14-.14c0-2.07,0-5.06,0-8.52,0,0,0-17.29,0-21.27A.59.59,0,0,0,31,1.16.91.91,0,0,0,30.31,1a37.25,37.25,0,0,0-16,4.76A50.11,50.11,0,0,0,3.92,14.43,10.53,10.53,0,0,0,1,21.55V45.64A53.81,53.81,0,0,0,5.91,68.17c2.83,6.21,10.27,11.14,15.18,14.41h0c1,.66,2.16,1.4,2.8,1.77a.22.22,0,0,0,.33-.17c.11-2.84.21-16.6.25-24.14l.05-14.57a1.91,1.91,0,0,0-1.48-1.76L10.78,41.46A4.56,4.56,0,0,1,7,37.06V31.78A1.15,1.15,0,0,1,7.31,31a1.29,1.29,0,0,1,.88-.34L18.1,31c.11,0,11.07.5,12.52.5H31" transform="translate(0 0)"/></g></g></g></svg>